<svg xmlns="http://www.w3.org/2000/svg" width="59.998" height="60" viewBox="0 0 59.998 60">
  <g id="smartphone" transform="translate(-0.001)">
    <path id="Path_218" data-name="Path 218" d="M42.6,0H17.405A4.411,4.411,0,0,0,13,4.405V55.594A4.411,4.411,0,0,0,17.405,60H42.594A4.411,4.411,0,0,0,47,55.6V4.405A4.411,4.411,0,0,0,42.6,0ZM15,8H45V46H15Zm2.405-6H42.594A2.408,2.408,0,0,1,45,4.405V6H15V4.405A2.408,2.408,0,0,1,17.405,2ZM42.6,58H17.405A2.408,2.408,0,0,1,15,55.6V48H45v7.6A2.408,2.408,0,0,1,42.6,58Z"/>
    <path id="Path_219" data-name="Path 219" d="M30,49a4,4,0,1,0,4,4A4,4,0,0,0,30,49Zm0,6a2,2,0,1,1,2-2A2,2,0,0,1,30,55Z"/>
    <path id="Path_220" data-name="Path 220" d="M26,5h4a1,1,0,0,0,0-2H26a1,1,0,0,0,0,2Z"/>
    <path id="Path_221" data-name="Path 221" d="M33,5h1a1,1,0,0,0,0-2H33a1,1,0,0,0,0,2Z"/>
    <path id="Path_222" data-name="Path 222" d="M56.612,4.569A1,1,0,0,0,55.2,5.983a9.594,9.594,0,0,1,0,13.552,1,1,0,1,0,1.414,1.414A11.6,11.6,0,0,0,56.612,4.569Z"/>
    <path id="Path_223" data-name="Path 223" d="M52.4,6.845a1,1,0,0,0-1.414,1.414,6.568,6.568,0,0,1,0,9.277A1,1,0,1,0,52.4,18.95a8.567,8.567,0,0,0,0-12.1Z"/>
    <path id="Path_224" data-name="Path 224" d="M4.8,5.983A1,1,0,0,0,3.388,4.569a11.6,11.6,0,0,0,0,16.38A1,1,0,0,0,4.8,19.535,9.592,9.592,0,0,1,4.8,5.983Z"/>
    <path id="Path_225" data-name="Path 225" d="M9.013,6.569a1,1,0,0,0-1.414,0,8.567,8.567,0,0,0,0,12.105A1,1,0,1,0,9.013,17.26a6.568,6.568,0,0,1,0-9.277A1,1,0,0,0,9.013,6.569Z"/>
  </g>
</svg>
